<?xml version="1.0" encoding="iso-8859-1"?>
<!-- Generator: Adobe Illustrator 27.8.1, SVG Export Plug-In . SVG Version: 6.00 Build 0)  -->
<svg version="1.1" id="&#x421;&#x43B;&#x43E;&#x439;_1"
	 xmlns="http://www.w3.org/2000/svg" xmlns:xlink="http://www.w3.org/1999/xlink" x="0px" y="0px" viewBox="0 0 480 480"
	 style="enable-background:new 0 0 480 480;" xml:space="preserve">
<g>
	<path style="fill:#1976D2;" d="M471.4,62c0.3,0.3,0.6,0.4,1,0.5C472,62,471.7,61.9,471.4,62z"/>
	<path style="fill:#1976D2;" d="M405.5,8.1c0.5-0.3,1.2-0.6,1.9-0.9C406.5,7.4,405.9,7.7,405.5,8.1z"/>
	<path style="fill:#1976D2;" d="M443.4,17.7C443.6,17.7,443.6,17.7,443.4,17.7C443.6,17.6,443.6,17.6,443.4,17.7z"/>
	<path style="fill:#1976D2;" d="M34.9,17.7c0.1,0.8,0.3,1.3,0.4,1.7C36.3,18.9,36.6,18.2,34.9,17.7z"/>
	<path style="fill:#1976D2;" d="M145.6,475.1c0.3-0.5,0.4-0.9,0.5-1.3C144.9,473.3,144.5,473.2,145.6,475.1z"/>
	<path style="fill:#1976D2;" d="M7.1,81c-0.4,0.5-0.9,1.4-1.8,2.7C6.4,82,7,81.4,7.1,81z"/>
	<path style="fill:#1976D2;" d="M472.4,96.8c0.3,0.1,0.5,0.3,0.8,0.4C473,97.1,472.7,97,472.4,96.8z"/>
	<path style="fill:#1976D2;" d="M408.3,475.4c-0.1,0-0.1,0-0.3-0.1c-3.1,4.7,4.8,2.6,1.4,0.6C409,476.1,408.6,476.1,408.3,475.4z"/>
	<path style="fill:#1976D2;" d="M473.2,407.1c-0.5-0.3-0.9-0.4-1.2-0.6c0.3,0.4,0.5,1,0.9,2.2C473.2,408.3,473.2,407.9,473.2,407.1z
		"/>
	<path style="fill:#1976D2;" d="M473.2,409.3c-0.1-0.3-0.1-0.5-0.3-0.8c-1.3,1.4-6.9-7,0.3-5.1c-0.8-3.9-0.8-5.6-0.6-6.2
		c-0.8-2.5,2.2-2.1,0.6-4.9c-1.7-2.6-1.6-7.4-0.5-7.7c0.8-1.2,4.9-4.5,0.5-8.1c-3.1-4.8,4.2-1.2,0-9.2c-5.7,3.2,0.1-7.9,0-10.1
		c7.3,3.2,2.6-7.1,0-10.9c-0.1-4.7-4-10,0-11.6c-7.1-5.3,1.3-6.8,0-12.2c5.6-3.6,1.4-4.8,0-12.7c-0.6-1.2-3.8-10,0-13.3
		c-8.1-3.1,2.5-4.8,0-13.5c-3.9-4.5-7.1-12.9,0-13.8c-5.6-6.4,4.7-9.5,0-14c-5.3-1.4,5.2-14.4,0-14c-2.6-5.5,0.9-9.6,0-14
		c0.5,3.2,1.8-12.2,0-14c-1.8-5.3,2.2-6.8,0-13.8c-3.6,1-0.4-7.7,0-13.5c4.9-6.1,0.1-12.5,0-13.3c-3.1-2.9-4.2-6.5,0-12.7
		c-1.3-7.7-2.9-9.7,0-12.2c1.3-10,5.2-4.5,0-11.6c7-3.6,4.7-7.4,0-10.9c-8.8,0.4,3.5-11.7,0-10.1c-0.4-3.9-2.1-6.5,0-9.2
		c-1.8-7.8-4.5-10.5-0.8-8.7c-3.1-1.9-1.8-7.1,0.8-6.9c1.6-0.5,3-7.7,0-6.1c3.5-4.7-2.2-10,0-4.9c-5.6,0.8-1.9-2.6,0-3.6
		c-2.6-2.2,1.4-0.1,0-2.2c-1.2-1.3-1.8-2.1-2.2-2.5c0.4,0.3,1,0.9,2.2,1.7c-1.6-6.4-2.3-9.7-1.8-10.1c-3.2-2.3-3.5-9.1-1-8.6
		c-1.9-1.6-3.4-4.7-3.2-8.6c-1.3-2.7-2.7-5.5-4.4-7.9c-2.2-0.5-3.1-1.9-5.5-7.3c-6.8-4.5-3-11.7-6.4-6.4c-6,0.1-7.5-4.8-7.4-5.5
		c-3.9,2.2-6.5,5.2-7.9-4.5c2.2,0.5-4.5-1.2-8.6-3.2c-1.3-3.5-3-3.5-9.2-2.1c-6.4-2.3-4.8-1.4-9.6-0.6c-0.6,5.8-4.4,2.9-2.7,0.9
		c-2.7,1.4-3.6,2.6-0.3-0.9c-7.5,4-3,2.1-3.6,0c-4.9-0.1-7.4-0.3-4.9,0c3,0.1-0.3,1-6.1,0c-3.9,0.9-4-4.7-7.3,0
		c-0.8-9.5-2.6-5.2-8.3,0c0.1-2.1-1.4-1.3-9.2,0c3-5.3-9.9,2.2-10.1,0c0.3,2.5-3.4,3.2-10.9,0c-4.9,4-3.2,3.8-11.6,0
		c-3.5,1.3-8.1-0.8-12.2,0c-3.6,5.2-12.2,0.6-12.7,0c-8.3-0.4-2.5-7.3-13.3,0c-2.5,0.5-8.2,3.5-13.5,0c-4.9-6.1-9.4,1.6-13.8,0
		c-4.2-1.8-11-1.3-14,0c-0.5,6-7.4,5.7-14,0c2.6,3.1-8.1,0.4-14,0c-9.1,3.2-7.1,2.3-14,0c-6-1.3-4.5-0.1-13.8,0
		c-4.7-0.8-11.2,1.7-13.5,0c-5.1-1.9-8.8,2.6-13.3,0c-6.9,5.8-6.8-2.2-12.7,0c-5.5-0.5-8.6-0.6-12.2,0c-4.2-0.9-5.3-4.5-11.6,0
		c-3.1-0.3-10,1.8-10.9,0c-1.4,0.8-11,2.7-10.1,0c-3.8,3-7.8,8.1-9.2,0c4.4-2.2-14.4-3-8.3,0c-4.4,2.1-6.6-0.5-7.3,0
		c-5.6-0.4-1.2-2.6-6.1,0c4.3,0.8-4.3,1.9-4.9,0c-0.3,0.1-2.1,0-3.4,0c1.4-0.3,0.3-0.5-2.5,0c-0.6-0.3-1.2-0.4-1.6-0.4
		c-4.7-2.6-6.4-5.2-8.8,1c-8.6-3-9.6,6.1-9.2,2.1c-2.7,6.6-13.8-1.8-8.6,3.2c-5.1,4.2-6.2,10.1-7.5,6.2c-2.2,1.2-7.9,2.3-7.7,3.8
		c-7.4-3.8-3.9,6.1-6.4,6.4c-3.5-5.3,0.5,7-5.5,7.3c-6.8,3.4-3.6-4.8-4.4,7.9C5.7,48.5,10,53.5,9,54c-4.8-1.6,2.6,4.8-2.1,9.2
		c-3.6-2.3,1,3.9-0.6,9.6c5.6,0.8,5.2,4.8,0,0.8c2.1,3.6-1.9,3.2,0,2.2c-1-1.4-2.5-1.2,0,3.6c-0.3,3.4,2.1,1.4,1.8,2.2
		c1.8-2.6-1.8,3.8-1.8,8.7c-1.2,1.7-2.2,4.4,0,7.5c-1,6.1-7.1,4.5,0,8.3c-2.1,10.3-0.9,5.3,0,9.2c1.4,1.6-0.4,9.6,0,10.1
		c-1.9,4,4.4,0.6,0,10.9c-2.2,1.9-3.5,8.1,0,11.6c-1.2,9.4,5.6,0.3,0,12.2c-0.4,3-2.9,7.9,0,12.7c4,0.9-2.2,11.7,0,13.3
		c-1.8,3.1,6.8,7.7,0,13.5c-0.1,4,6-4.3,0,13.8c6,10,3,11.4,0,14c2.1-0.6-2.5,14.4,0,14c1.8,9.5,2.2,5.5,0,14c0.1,1,2.1,5.7,0,14
		c1.9,6,5.2,3,0,13.8c2.3,4,4.4,10.1,0,13.5c1.3,6.5,2.3,8.1,0,13.3c1.9,0.8,0.9,4.2,0,12.7c5.1,3.2-2.6,11.2,0,12.2
		c0.1,2.3,0.6,5.8,0,11.6c6.6-1.2-6.6,7,0,10.9c0.3-0.4-3.4,7.3,0,10.1c11.7-6.5,4.8,4.7,0,9.2c1.4,0.8,3.4,3.5,0,8.3
		c0.9,5.5-6.2,5.5,0,7.3c3.8-5.3,1.2,4.7,0,6.1c-2.7,3-0.9,4.4,0.6,5.1c-0.1,0-0.4,0-0.6-0.1c0.5,2.3,1,3.2,1.2,3.4
		c-0.1-0.1-0.5-0.3-1.2,0.3c-6,5.5,0.8-0.6,0,2.2c-2.6,2.5-0.9,1,0,0.8c2.5,6.5-2.1,2.6,0.6,9.6c-2.6,2.3,6.5,7.4,2.1,9.2
		c-2.2-0.4,4.4,3.1,3.2,8.6c1.3,5.2,4.5,9.4,4.4,7.9c2.1,1.4,2.7,5.6,5.5,7.3c6.6,0.9-4.8,7,6.4,6.4c2.1,6.5,8.2,3.5,7.3,5.5
		c5.3,5.7,6.2,7.5,7.9,4.4c4,3.8,7.9-0.8,8.6,3.2c-0.6,2.5,11.7-1.8,9.2,2.1c2.3,4.8,6.8,1.8,9.6,0.6c0.1-0.3-5.2-4,0.8,0
		c-2.2-10.1,0.8,2.1,2.2,0c2.3,0,3.5-6.9,3.6,0c4.7,2.3,5.6,2.5,5.6,1.7c1-0.3,2.9-0.9,4.7-1.4c1.2,0.8,4.7,1.9,8.1-0.3
		c3,1.6,5.5,4.3,8.3,0c1.6,1.2,7-3.2,9.2,0c6-3.9,5.7-0.5,10.1,0c5.6-6.1,11.3-6.6,10.9,0c7.4,0.6,13.4-4.8,12.2-1.3
		c2.2,1,6.8,3.4,11.7,1.3c6,3,8.7-4.8,12.7,0c3,0.4,4.8,3.2,13.3,0c12.6,2.2,8.8,1.9,13.5,0c5.7-2.9,12.5,1,13.8,0
		c6.4-13.6,2.7,5.1,14,0c11.4-1.4,6.5-0.8,14,0c0.9,2.9,13-3,14,0c7,5.3,7-6.5,14,0c9.4,1,14.7-1,13.8,0c5.5,1.6,15.9-2.9,13.5,0
		c5.8-6.8,7.3-2.1,13.3,0c3.1-3.1,10,7,12.7,0c4-1.2,16.6,2.3,12.2,0c9.4-7.4-1.6,2.6,11.6,0c3.9-8.1,6.8,5.1,10.5,0.5
		c3.9,1,13.6,2.9,10.5-0.5c3.5-3.4,1.4,5.2,9.2,0c4-0.3,2.2,6.4,8.3,0c-1.9,4.3,8.3-4.9,7.3,0c5.3,4.4,5.8-0.1,6.1,0
		c0.3-3.8,9,5.7,5.3,0.5c1.2-1.4,4.2-6.6,3.2-0.5c-2.6,1.9,8.3-3.6,2.2,0c0.3,0,0.4,0.1,0.6,0.1l0.1-0.1c0,0.1,0,0.1,0.1,0.3
		c0.5,0.1,0.9,0.4,1.3,0.5c1.9-1,5.2-6.6,8.3-1.4c9-4.2,6.5-6,9.2-2.1c3.4,10.4,9.2-0.5,8.6-3.2c4.2-7.3,5.6,2.2,7.9-4.4
		c-1.2-3.5,3.4,4.2,7.3-5.5c6.2-2.5,11-2.9,6.4-6.4c1.3-5.3,9.6-7.7,5.5-7.3c3.9-3.4,5.6-6.5,4.9-7.5c4.7,3.6-3.5-1,2.7-9
		c-1-0.6-3.8-8.7,2.1-9.2c2.2-1.3-4.8-0.8,0.6-9.6C483.1,406.5,473,404.1,473.2,409.3z M382.6,345.1h-34.1c-12.9,0-17-12.7-39.5-39
		c-19.5-22.7-29.6-26-34.6-26c-6.9,0-9.4,1.7-9.4,12.1v38.6c0,8.7-2.2,14.2-24,14.2c-36,0-76.7-24.4-107.5-66.6
		C91,220.2,83.2,169.6,83.2,160.1c0-5.2,1.7-10,11.6-10h34.3c8.6,0,11.8,3.8,15.2,13.9c15.2,51.1,38,90.1,49.5,90.1
		c4.3,0,6.2-2.1,6.2-13.5v-47.1c-1.3-24.3-13-26.4-13-35.1c0-4.2,2.7-8.3,8.1-8.3h60.4c7.3,0,9.5,4.2,9.5,13.1v67.5
		c0,7.7,5.8,10.4,8.1,10.4c4.3,0,8.3,0.3,16.2-8.1c24.4-28.9,45.6-72.4,45.6-72.4c2.3-5.2,6.2-10.4,14.8-10.4h34.1
		c7.7,0,10.9,3.4,11,8.1c0.1,1.6-0.3,3.5-0.8,5.5c-4.3,20.8-48.2,82.5-48,82.5c-1.8,3.2-3.1,5.5-3.2,7.9c-0.1,2.3,0.8,4.7,3.2,8.1
		c3.6,5.2,11.6,14.8,19.5,24.4c14.4,17.4,26,35.7,28.5,43.3c0.5,2.1,0.8,3.9,0.8,5.5C395.1,341.9,390.5,345.1,382.6,345.1z"/>
	<path style="fill:#1976D2;" d="M473.2,385c-0.3-0.3-0.4-0.4-0.5-0.3C472.4,385.2,472.4,385.3,473.2,385z"/>
	<path style="fill:#1976D2;" d="M472,406.5C471.4,405.4,471.3,405.8,472,406.5L472,406.5z"/>
	<path style="fill:#1976D2;" d="M472.6,397.2c0.1,0.4,0.3,0.8,0.6,1.3C473.3,397.5,472.8,396.6,472.6,397.2z"/>
</g>
</svg>
