<?xml version="1.0" encoding="iso-8859-1"?>
<!-- Generator: Adobe Illustrator 27.8.1, SVG Export Plug-In . SVG Version: 6.00 Build 0)  -->
<svg version="1.1" id="&#x421;&#x43B;&#x43E;&#x439;_1"
	 xmlns="http://www.w3.org/2000/svg" xmlns:xlink="http://www.w3.org/1999/xlink" x="0px" y="0px" viewBox="0 0 512 512"
	 style="enable-background:new 0 0 512 512;" xml:space="preserve">
<path d="M256.4,5.3c0.9-5.3,12.6,0.3,11.2,0.3c6.2-2.6,4.6-2.4,11,0.7c2.2,1.8,4.7,0.7,10.9,1.2c4.1-7.3,11-3.4,10.7,1.6
	c-0.3,4.8,5.4-1.5,10.6,2.1c0.6,3.5,5.9,2.5,10.4,2.5c4.8-0.1,4.7,0.7,10.3,2.9c5.4,0.1,4.8,8.7,10.1,3.4c5.1,2.1,9.5,1.5,9.8,3.8
	c-0.7,2.5,8.7,6.2,9.7,4.3c4.8-3.2,9.5-1,9.4,4.6c8.7,5,7.8,2.6,9.3,5c1,0.7,6.5-4.4,9,5.3c2.2-0.9,1.9,12.2,8.8,5.7
	c2.8,4.4,9.4,5.6,8.5,6c-4.3,9.8,1.8,5.7,8.2,6.5c2.9,3.4,13.8,0.1,7.9,6.8c6.8-0.7,4.8,7.9,7.6,7.1c9.1,2.2,7.9,7.1,7.3,7.3
	c2.8,9.8,4.1,7.8,7.1,7.6c5.6-1.5,8.1,2.4,6.8,7.9c-0.1,6.9,5.1,10.3,6.5,8.2c8.1-2.4,7.9,0.9,6,8.5c0.4,1.8,7.5,15.9,5.7,8.8
	c2.1,5.7-1.3,6.9,5.3,9c2.5,8.4-2.6,5.4,5,9.3c4,0.6,4,4.6,4.6,9.4c-2.8,3.5,8.1,9.1,4.3,9.7c2.2,8.5,0.3,10.3,3.8,9.8
	c5.6,7.5,3.8,4.8,3.4,10.1c1.2,3.8,5.3,7.5,2.9,10.3c-4.1,2.5,3.8,7.9,2.5,10.4c4.6,7.5-1.6,4.1,2.1,10.6
	c-6.5,3.5,4.7,10.7,1.6,10.7c3.1,2.9-5.9,6.6,1.2,10.9c-2.5-5.7-1.6,6.8,0.7,11c1-1.6,0,14.1,0.3,11.2c0.6,1.9-0.9,6.8-0.3,11.2
	c-6.9,9.5,1.5,6.3-0.7,11c-2.9,1.8,5.6,4-1.2,10.9c-8.7,1.2-0.7,10.4-1.6,10.7c-1.6,8.2,2.2,9.4-2.1,10.6c-2.6-1.3,5.3,8.7-2.5,10.4
	c-5.3-5.9,1.5,4.7-2.9,10.3c-4,7.9-1.5-0.1-3.4,10.1c-9.1,4.7,4.6,4.3-3.8,9.8c2.1,5.3-5.7,6.6-4.3,9.7c-2.2,2.6-4.1,8.1-4.6,9.4
	c-2.1-1-16.3,11.2-5,9.3c0.6-6.5-7.5,0.7-5.3,9c-8.7,4.4,4.1,5.9-5.7,8.8c-0.9,9-10.9,17.3-6,8.5c-3.1-0.7-6.3-3.8-6.5,8.2
	c4.1,7.2-2.9,1.8-6.8,7.9c-3.1,5.6-3.1,11.6-7.1,7.6c-0.6,9.4-6.6,3.1-7.3,7.3c-0.4,8.5-7.6,8.5-7.6,7.1c-6.2,3.7-10.4,4.7-7.9,6.8
	c-0.3-0.4-4.8,11.2-8.2,6.5c-1.9-0.1-11.3,12.2-8.5,6c0.1,6-8.8,2.8-8.8,5.7c-4.8,3.5-3.1,0.9-9,5.3c4.3,2.5-9.5,2.4-9.3,5
	c-5.7-0.3-8.7,6.2-9.4,4.6c-1.8,4.4-14.5,3.2-9.7,4.3c-3.4,0.7-5.7,2.6-9.8,3.8c-2.2-6.6-5,5.4-10.1,3.4c-10.9,3.5-10,6.9-10.3,2.9
	c-9.5,2.1-2.8,2.8-10.4,2.5c-4.7-1.2-8.4,4.4-10.6,2.1c-3.4-11.5-0.9-6.5-10.7,1.6c2.9,1.2-10.9,1.5-10.9,1.2
	c-0.6,3.1-3.5,3.1-6.2,2.5c-2.6-0.6-5.1-2.1-4.8-1.8c-3.5,0.4-5.1-2.5-6.6-1.9c-2.1-2.1-1.6-1.3-4.6,2.1c-5.6-2.9-1.3,2.5-4.8-0.3
	c0,2.5,3.2,2.9-6.3,0c-4.1,2.5-5.3,1.9-5.1,0.4c-4.4,7.5-8.8-2.6-5.9-1.2c5.6-3.1-0.3-6.2-5.4-0.6c-0.3,2.4,1.2-4.8-5.4-0.6
	c1.9-5.1-6.3,7.8-9.8-1.5c-5.7-3.8-3.5,1.9-9.7-1.9c-1.9-1.6-10.9-4.7-9.5-2.2c0.6,1.5-2.2,2.2-4.8,1.8c-2.5,1.3-3.7-3.1-4.6-4.4
	c0.1,1.9-0.3,0.3-2.6-0.7c-2.2-0.7-5.4-4.7-6.6-2.4c-1.6-4-0.3-1.8-4.6-1.8c-0.1,1.9-7.1-2.5-4.6-1.5c-1.2-2.4-4.4-5.6-6-3.5
	c-2.5,1.2-3.1-5.7-2.9-0.1c-3.5-3.4-2.1,0.7-5-1.3c0.9,2.5-4.4,2.2-3.8-2.8c6,1.5-0.3-3.1-4-2.8c1.9-3.2,4.7-4.6-4.6-1.5
	c-3.5-6,0.4-2.1-5-3.4c0.3-1.3-9.7-4.7-3.4-1.2c-2.1-4.3-3.2-5.9-3.7-3.5c-0.6,0.6,0.9-3.2-4.6-1.3c-3.4-0.6-6.6,0.1-3.2-1.5
	c-1.6,1.6-2.6-5.9-4.7-3.8c-5.6,2.5,1.2-9.3-4.3-2.9c-3.4,0.4-0.1-6-1.5-2.2c-1.3-0.9-4,0.1-2.8-0.7c5.1,0.1-5-0.4-2.5-0.3
	c1,0.1-2.9-2.2-1.5-2.1c-1.6,1-4-1.5-2.1-1.8c-7.1-6.6,1.6-2.1-2.2-2.2c-2.8,4-1.2-0.3-2.4-1.9c-1.5-4.3-1.5-6.6-1.6-3.1
	c1.5-2.8-1.9-6.5-4-1.8c-6.5,1.5-4.8-3.5-5.3-3.5c-4,0.9-2.1-1-2.5-3.5c-0.9,0.6-6.6-4.1-4.7-1.3c-0.3-3.8,0.1-1.3-2.4-1.5
	c-0.4-0.4-2.6-1.3-0.3-4.6c-2.9-2.6-4.8-4.8-5.3-6.2c-0.4-1.2-0.3-1.6-1.8-1.5c0.7-9.5,0.3-2.2-6.8-7.9c1.5-2.6-0.3-12-6.5-8.2
	c-4.3-2.5,1.6-9-6-8.5c-2.5-3.8-5.4-3.2-5.7-8.8c-7.5,0-3.2,0.1-5.3-9c3.8-4.7,0.6-8.4-5-9.3c-6.2-4.7-3.1-11-4.6-9.4
	c7.5,6.2,0.4-9.4-4.3-9.7c-10.4-1.6-5.9-5.3-3.8-9.8c-5,3.4-6.2-10-3.4-10.1c1.2-6.2-5.7-7.3-2.9-10.3c0.7,11.2,3.5-3.2-2.5-10.4
	C10,302.6,8,299.5,10,299.5c-3.8-4.4,7.2-1.6-1.6-10.7c2.1-6.2-2.4,1.2-1.2-10.9c7.8-10.4,0-13.4-0.7-11c-0.6-11.8,6.8-5.6-0.3-11.2
	c5.7-1.3-0.3-5.1,0.3-11.2c2.9-0.9-6.2-12.2,0.7-11c8.2-10.9,0-7.3,1.2-10.9c2.8-0.9,3.2,0.7,1.6-10.7c-1.3-4.7-0.3-6,2.1-10.6
	c6.3,0.9,2.9-0.9,2.5-10.4c-5,2.2,5.6-2.4,2.9-10.3c-3.5,1.9,1.3-10.6,3.4-10.1c3.8-3.2,9.5-1,3.8-9.8c5.4-6.9,0.3-8.2,4.3-9.7
	c5.4-0.1-0.6-4.7,4.6-9.4c2.4-9.3,6.6-7.2,5-9.3c1.8-6.2,6.8-6.2,5.3-9c-1.3,2.1,0.9-1.9,5.7-8.8c-0.9-6.9,5.6-7.6,6-8.5
	c1.5,2.1,5-4.7,6.5-8.2c3.2-4.3-0.4-4.1,6.8-7.9c3.2-2.2,10,0.3,7.1-7.6c1-2.3,10,1.1,7.2-7.4c5.1-5.9,7.8-9.5,7.6-7.1
	c4.1,0.1,6.5,4,7.9-6.8c-5-3.8,7.3-4.3,8.2-6.5c-2.6-4.4,9.3-7.2,8.5-6c1,5.4,5.9-9.4,8.8-5.7c2.8,2.5,0.6,0.4,9-5.3
	c4.8,1.2,1.5-4,9.3-5c4.6-3.8,2.1-4.3,9.4-4.6c-1.2-4.8,0.9-3.7,9.7-4.3c1.2-0.4,4.7,1.8,9.8-3.8c-8.5-8.5,8.7-0.4,10.1-3.4
	c5.3,4.4,6,5.1,10.3-2.9c-1.8-4.3,3.7-7.9,10.4-2.5c11.6,2.5,9.7,0.7,10.6-2.1c-1.2,2.6-1.9-2.1,10.7-1.6c0.7,2.1,11.3,1.5,10.9-1.2
	c0.6,2.2,11.2,2.8,11-0.7C257.5-0.2,251.6,6.7,256.4,5.3z M343,358.3c4.6-14.1,26.2-155.1,28.9-182.9c0.7-8.4-1.9-14-7.1-16.5
	c-6.3-3.1-15.6-1.5-26.4,2.4c-14.8,5.3-204.7,85.9-215.7,90.6c-10.4,4.4-20.3,9.3-20.3,16.2c0,4.8,2.9,7.6,10.9,10.6
	c8.4,2.9,29.4,9.4,41.9,12.8c11.9,3.2,25.6,0.4,33.2-4.3c8.1-5,101.4-67.4,108.1-73c6.8-5.4,12,1.5,6.6,7.1
	c-5.4,5.4-69.5,67.7-78,76.2c-10.3,10.4-2.9,21.3,4,25.6c7.8,5,64.3,42.9,72.9,48.9c8.5,6,17.2,8.8,25.1,8.8
	C334.9,380.8,339,370.3,343,358.3z"/>
</svg>
