<?xml version="1.0" encoding="iso-8859-1"?>
<!-- Generator: Adobe Illustrator 27.8.1, SVG Export Plug-In . SVG Version: 6.00 Build 0)  -->
<svg version="1.1" id="_1-Email" xmlns="http://www.w3.org/2000/svg" xmlns:xlink="http://www.w3.org/1999/xlink" x="0px" y="0px"
	 viewBox="0 0 512 512" style="enable-background:new 0 0 512 512;" xml:space="preserve">
<path d="M457.2,70.2c0.9,1.7,1.4,0.4-0.4,0c1.5,1.3,1.2-0.2,0,1.6c-1.6-0.7-2-0.4-1.2-1.6c1.5-1.5,0.8-1.7,0-0.9
	c-0.8,0.4-1.9,1-1.9,0.9c2.7-0.5-2.6-2.7-2.6,0c-0.2,0.7-3.4-0.4-3.3,0c-2.7-0.7-1.4,2.8-4,0c-3.3,2-4.6-0.2-4.6,0
	c-1.8,1.8-5.9-4.3-5.2,0c-0.4-4-3.8,0.7-5.7,0c-5.2,3.1-4,1.5-6.3,0c-2,2.2-4.7-0.1-6.8,0c-1-4.3-5.2-3.4-7.3,0
	c0.6,2.7-6.9-2.1-7.7,0c-4.4,0.6-6.5,1.8-8.1,0c1.8,3.1-2-1-8.5,0c-0.6-3.1-8.9-1.9-8.9,0c-5.1,1.7-3.5,5.7-9.2,0
	c-2.1-1.2-6.1-0.1-9.5,0c-3.4,2.5-7.7-1.8-9.8,0c-5.6-0.9-10.1,1.2-10,0c-3.6,0.1-6.1,3.4-10.3,0c-2.9-0.9-6.8-1-10.5,0
	c-1.4-4-8.4,0.2-10.6,0c-4.2,3-8.6-4.7-10.7,0c1.5-0.7-7.2-1.1-10.8,0c-4.9,0.7-5.7,1-10.9,0c-2.7-0.5-8.3-3.3-11,0
	c-3.8,0.9-9.1,0.2-11,0c-3.1-1.7-7.4,0.9-11,0c-5.8-0.2-8.8,2.5-10.9,0c-4.5,0.3-8.9-2.9-10.8,0c-2.3-1.2-5.7,3.2-10.7,0
	c-0.7,3.6-8.9-0.6-10.6,0c-5.4-1.8-6.5-1.7-10.5,0c-1.5-1.4-3.4-0.5-5.2,0.3s-2.7,1-5-0.3c0,2.2-3.9,2-6.3,0c-0.2-1.5-0.8-3.1-3.8,0
	c-1,2.1-4.5-1.2-5.4-0.5c-2.9,2-3.6,1.4-4.4,0.5c-1.2,3.4-2.8-1.4-5.8,0.2c-2,0.9-2-2.8-3.7-0.2c-2.4-3.7-3.6-3.3-5-0.8
	c-5.3-1.6-4.7,0.1-4.2,0.8c-3.3,0.8-3.7,0.4-4.6,0.5c-2.4-2.3-3.5-1.1-4.2-0.5c-6.3,1.6-6.7,1.4-11.5,0c-4.4,0.1-7.2-2.2-10.8,0
	c-4.2-0.7-4.8,1-10,0c-3.7,2.8-6.5,0.5-9.1,0c-0.3-0.5-4.1-0.9-8.1,0c-1.3,2.9-4.4-1.9-7,0c-4,1.5-3.7,0.9-5.9,0
	c0.1-1.4-3.9-0.6-4.7,0c-2.9-1.9-0.3-0.8-3.5,0c-3.4,3.2-0.6,2.3-2.1,0c0.5-1.5-1.2,0.3-0.7,0c-1.3,1.6-2.8-0.1-4.6,0.2
	c0.8,0.5,0.4,0.5-0.6,0.5c-0.3,0.4-2.3-0.3-3.9,0.1c-4.2,3.8,1.5,0.8-3.2-0.2c-5.1,2-1.1,0.8-1.1,1.2c-4.8-1,0.3,0.4-2.4,0
	c-0.2,3.5,0.4-2.5-1.1,0.9c-1.1-0.5-0.7-0.3-2.3,0.5c-2.1-0.7-2.3-1-0.4,0.9c0.7-2.9-0.9-0.2-2.5-0.7c1.7,2.1,1-0.6-0.1,1.8
	c-2.7,5.5-8.6-1.1-3.2,0.8c6.7,3.9-4.2,0.7,0.2,1.2c0.3,1.3,0.8,4.8-0.6,2.1c1.1,0.3-2.5,2.2-1.9,0.6c1-5-1.7,1.9-2.6,0.7
	c1.7,1.6-5.6,0.7,0,0.5c-2.8,2.1-2,1.5-2.7,1.6c1.5,1,0.9-1.7,0.1,1c0.4,0.9-1.5,1.7-2,1.9c-0.7,5.5-5.1,2.3-0.7,3.3
	c0.6-0.2-4-0.3-3.2,1.9c2.1,2.2-2.1,5.5-0.8,2.7c-1.9,0.6-3.8-1.1-2.3,3.1c2.2-2.3,0,2.1-0.2,2.1c0.1,1.2-1.9,7.4-2.2,4.1
	c0,0.2-1.9,0.2-0.1,2.6c2,0.7-0.3,0.1-1.3,3.9c2.7,4.5,0.1,1.7,0.4,4c0.3-1.3-2.9-0.5-0.9,2.8c3.1-2.7-2.9,1,0,0.7
	c-2.7,1.5-3.1-1.7-1.2-0.2c0.7,3.2,1.8,0.7,1.2,2.1c-2-1.2-0.2-0.4,0.8,1.2c1.9,1.5,1,0.2-0.8,1.9c1.6,1,0.1,1.8,0,1.2
	c-0.9,0.9-0.3,1.7,0,3.1c4-0.8-1.5,4.1,0,5.3c-1.4,1.6,1.4,3.7,0,6.3c-0.2,2.3-4.5,5,0,7.1c-0.3,1.2-2.2,4.2,0,8
	c-0.4,2.2-1.9,5.1,0,8.7c-2,2.8-2.2,4.1,0,9.4c-2.7,3.7-3,6.9,0,9.9c-0.3,1.3-1.1,9.4,0,10.4c0.3-0.5-0.2,0.6-0.5,2.6
	s-0.5,5,0.5,8.3c-0.6,1.5,0.9,3.4,0.9,4.6c0.9,0.4,0,4-0.3,3.9c-0.2,1.6-0.7,3.1-0.7,2.7c-1.7-0.6-1.7,0.7-0.9,1.9
	c1.2,1.7,2.1,2.3,0.9,2.8c-0.3,1.2,1.4,1.1,0.1,2.5c1.1,2-0.4,2-0.1,2.2c1,0.1-0.5,1.3-0.3,1.5c-0.6,0.5-0.9,2.6-1,2.4
	c-1.3,1.1-2.2,2.2-1.6,2.7c2-0.9,1.9,0.8,2.9,3.1c0.7,0.7,0.1,1.5,0.6,2.6c0.5,1.2,0.6,2.2-1.3,2c3.4,3.5-0.1,3.6,0.8,5.1
	c4-0.4-0.2,3.7,1.5,2.8c-1.2-1.9,1.1,3-1.5,6.9c-2.2,1.2,0.6,4.5,0.9,5.8c0.3,1.2-2.2,4.3-0.9,3.9c-0.4,2.8,2.7,3.2,2.2,5.4
	c0.1,1.1-0.9,3.9-2.2,4.4c0.6,1.1,1.1,3,1.2,4.8s-0.2,3.7-1.2,4.9c-0.5,4.6,0,7.5,0,9.6c-0.6,4,2.1,4.9,0,9.4
	c-0.3,2.9,1.3,4.9,0,9.2c0.1,0.4-3.4,4.2,0,9c1,2,2.4,5.2,0,8.7c0.8,2,2.4,4.8,0,8.4c-1.2,2.5-1.5,5.9,0,8c0.5,1.7,1.4,2.2,1.7,3
	s0,1.8-1.7,4.6c0.3,2.3-0.1,2.6-0.3,4c-0.5,1.1-0.8,3.9,0.3,3.1c1.1,2.1-0.6,1.8,0.3,3.7c0.1-0.2-0.4,0.5-0.3,2.9
	c-1.1,2.3-1.3,3.4-0.4,4.2c0.5,0.9-0.1,1.7,0.4,1.9c-0.6,1.9-1.4,2.5-0.1,4.4c0.6,1,1.4,0.6,0.1,1.1c0.1-0.5-0.7,2.6-2.2,2
	c-0.7,0.5-0.2,1.3,2.2,0.9c1.3,1.6,2.1,1.8,0,2.6c-1.8,0.1,1-1.6,0.4,2.6c-0.9-3.3,1.5,3.3-0.4,2c-0.8,0.2-1.4,1.1,0.2,1.8
	c1.7-0.9,0.2,0.5-0.2,1.8c-0.7,2.5-0.2,3.8,0,2.7c0-1.8-0.3-3.8,0.5-0.7c1.1,0.9-1.2,1-0.5,2.3c-0.8,0.5,1.1,1.1-0.7,1
	c-0.5-0.3-0.7-0.8,0.7-0.4c-0.2-2.1,1.5,0.3,0,2.3c-0.8,2.4,1.2,4.2,0.3,3.2c-1.5,1.9-0.8,3.1,0,3.9s1.8,1.1,0.9,1.4
	c-3.1-1.9,2.4,1.8,1.5,5.1c-1.3,0.8-1.1,4.8,2.1,4.8c1.8-0.5,1.5,2.8,2.6,4.5c-2,0.6,2.8,1.7,1.9,2.7c-1.7,3-0.2,2.6,2,2.5
	c-2.1,2.9,3.7-2.8,2.6,1c3.1,3.6,0.3,2.2,2,3.5c-0.8,0.6,1.8,4.4,3.7,1.9c0.7,3-0.4,4.1,1.5,2c-1.1,1.2,3.1-0.6,3.7,0.4
	c-0.3,1.4,2.6,3.4,2,2.8c2.3,1.8,1.9,1.9,3.6,1.7c3.2,0.5,2.8,0.8,2.6,0.7c2.8-0.2,3.7-0.4,4.3-0.3s0.8,0.6,2.3,1.7
	c-0.3-1.5,4,1.2,6.9,0.5c2.3-2.7,2.4,0.2,0.4,0c3,1,2.7,1.8,1.2,0c0.4-3,1.3,1.4,1.9,0c-0.7,3,2.9,2.6,2.6,0c-1-1.1,3.7,1.1,3.3,0
	c1.4-0.1,1.9,3.3,4,0c1.7,1.6,4.7-0.5,4.6,0c1.2-2,2.5-0.2,5.2,0c-0.2-2,2.5-1.2,5.7,0c2.6,0.5,6.2,0,6.3,0c2.2,0.3,2.1,3.7,6.8,0
	c5.6,0,5.3-2.2,7.3,0c-1-1,8.2,0.4,7.7,0c-1.9-0.3,7.5-1.6,8.1,0c3.4-2.5,3.9-1.5,8.5,0c3-1.6,3.9-2.6,8.9,0c3.9,0,3.6-2.9,9.2,0
	c4,3.6,4,2.7,9.5,0c0,0.9,9.3,1.4,9.8,0c0.7-0.2,8.3,2.3,10,0c2.3,1,7-0.3,10.3,0c3.8,0.9,7.2,0.6,10.5,0c4.4,1.9,9.8-1.1,10.6,0
	c2.4,0.7,6.9,0,10.7,0c6.5-3.4,8.8,5.4,10.8,0c-2.4-1.5,7.5-2.8,10.9,0c5-0.7,5.6,1.5,11,0c5.6,2.2,6.5,1,11,0c-1.8-3.7,6.2-1,11,0
	c0.9,1.7,5.9,0.6,10.9,0c0.6-1.6,5.1,0.7,10.8,0c2.4,3.1,7.5-2.7,10.7,0c0.3-0.3,9.2,0.7,10.6,0c3.9-0.9,5.7,1,10.5,0
	c3.5-0.6,8-2.4,10.3,0c5.8-0.2,7.6-2,10,0c2.3-0.3,4.5-2.2,9.8,0c6.8-2.2,3.6-0.5,9.5,0c4-0.4,3.5-0.9,9.2,0c4.8-3.1,7.8,0,8.9,0
	c3-1.6,8,1.8,8.5,0c3.2-0.1,5-2.4,8.1,0c3.6,5.8,3,1.7,7.7,0c3.4,1.3,5.2-1.3,7.3,0c2.6-2.1,6.7,2.1,6.8,0c2.9-0.4,5.8,3.4,6.3,0
	c5.1,0.3,4.3,4.2,5.7,0c5-2.9,1.4-0.5,5.2,0c2.7,1.4,5.6,2.4,4.6,0c0.4-0.1,5.1,0.2,4,0c3,2.9,1.3,0.8,3.3,0c-0.9,2.7,1.3,0.7,2.6,0
	c-0.7,0.7,1.6-2.4,1.9,0c1.4,1,3.4-2.3,1.2,0c1.2-1.6,1,3,0.4,0c-3.3-1.8,0.5,3.1,3.5-0.1c1.1-2-0.4,1.4,3.4-0.4
	c-0.7,0.8,1.2,2.3,3.3-0.6c1.4-3.3,0.3,0.9,3.2-0.8c1.5-0.6,1.4-2.1,3-1.2c1.2-0.4,2,0.5,3.1-1.1c2.2,0.2,2.5,1.5,4.5-1.5
	c-0.6-0.5,2.2-2.6,1.2-1.6c3.4-1.2,2.9,1,2-1.6c0.1-0.5,2.4,0.7,1.6-0.8c0.3-1.4,0.5-0.1,1.6-1.6c0.4-1.8,3.2-2.5,3.1-2
	c1.7,0.5,1.2-0.6,1.8-1.8c-1.3,0.6,0.8-2.9-0.3-0.8c0.3-1.5-1.1-0.7,0.5-2.2c0.3-0.2,0.7-0.2,1.2-0.8c1.9-1.3,1.1,1.3,2.2-2.2
	c3.1-1.7-0.2-3.3,2.6-2.1c-2.3-1.9-1.1-3.5,0.5-3.6c4.2-2.2,0.7-6.2,1.9-3.1c-0.8-0.6,0.7,1.4,0.5-3.1c-2.2,1.3,1.1-1.4,0.9-2.3
	c2.8,1.1-3.2-3,0.5-4.2c-2.6,2.1-2.9-2.5,0-2.4c1.9-2.5,3-6.3,0.5-4.4c-2.2,0.9,2.2,0.2,0-1.4c0.1,0,1.3,0.3,0.4-1
	c0.5-0.3-4.3-1.5-0.4-3.2c-0.9-1.1-1.4-1.4-0.7-4.5c-3.6,0.8,2.3-4.3,0.7-2.2c0.9-0.7,3-3,3.2-4.1s-0.7-2.5-3.2-4.7
	c4-0.1,1.7-3.4-0.4-2.9c-1.5-2.4,2.9-1.5,0.4-3.1c-2.4-0.3,1.9,0.6-0.1-3.5c-0.2-2.3-3.7-2.2,0.1-3c1.2,1.5,4.3-2.4,0-4.1
	c-1,0.6-2.2-2.7,0-3.1c-1.2-1.8-2.5-5.2-1-5.4c1.1,0.4,0.9-2.6,1-2.2c0.1,2.7,2,3,1.9-2.8c0.8-3.1,1.3-3.4-1.9-5.3
	c1.6-4.5,2.6-6.7,2-6.5c0.4,0.8-1.4-1.7-2-2c1.4-0.6,1.1-1.5,0.5-4.1c-0.5-1.7-0.1-3.6-0.5-4.8c1.3,0.7,0-6.2,0-9.2
	c3.2-3.7,0.5-4.8,0-9.4c-2.4-3.5,1.7-8.2,0-9.7c2.1-8.8-2.8-7.2,0-9.8c-1.4-2.7,2.5-7.3,0-10c-0.5-2,0.1-10.5,0-10
	c1.9-3.1,3.6-4.7,0-10.1c2.5-4.8-2.4-6.9,0-10.1c-4.5-4.2,1.2-8.5,0-10c0.7-2.5,0.1-4-0.3-5.3s-0.8-2.6,0.3-4.6
	c0.4-1.9,1.4-2.2,0.7-4.5c-1.3,1.1-0.1-3.7-0.7-5.2c-1.3-0.9,1.5-0.9,0.4-4.1c2.4,0.3-1.1-4.4-0.4-5.5c0.8-1.1-2-1.8-1.9-4.8
	c1.7,1.9-1.1,2.8,1.9-4.5c-1.2-1.8-0.7-4.6-0.1-5.2c-0.7,0.5,0.5,1.6,0.1-3.8c-0.6,2.2,1.7-0.3-0.2-2.8c-0.6-0.5,1.1-4.4,0.2-5.9
	c0.7-1.4-0.3-4.6-0.3-4.1c-0.7-4.9-2.1-2.2,0.3-4.2c0.1-0.6,2.2,4.9,0.9-2.4c1.1,3.1,0.9,0.9-0.9-5.4c-0.3,1.9-3.7,3-2.5-2.8
	c3-4.4,1-4.8,2.5-4.5c-1.9-2.1-2.4-1.6-0.9-3c0.9-2.2-0.6,0.7,0.9-3.8c2.4-2,1.7-3.1,0.9-4.1c-0.1-1.2-0.3-2.3-0.9-2.1
	c-2.4-3.3-1.9-4.5-1-5s2.1-0.3,1-0.6c2.2-5,0.4-7.2,0-5c6.2-1.1,2.1-6.7,0.5-2.5c2.7,1.8-0.6-1.5-0.5-2.1c3.3,1.8-0.1-3.4-0.3-2
	c0.4,2.8-1.3,0.4,0.3-1.7c4.3-4-3-0.8,0-2.7c1.9,0.1,1.4,2.6,1.5-1.7c-2.8-3.7-3.7,0.2-1.5,0.1c-1.3,2.6,4.3,1,0.8,0.7
	c1.1-3.7,3-0.2-0.8-1.2c-0.1-1.8-3.9-3.4-1.3-2.7c1.8-1.8-0.1,0.8,0.8-4.2c-2.4-5.8-0.9-1.2-3.5-4.9c-2.6-0.1,2,0.4,2-1.7
	c-0.1-1.4-0.9-0.3-0.1-1.9c0.5-1.5,1-2.4-2.2-4.3c-0.3-2.6-0.1-2.2-0.3-2.1c-0.2,0.1-0.9,0-2.9-3.6c-1.9-2-2.8-1.2-3.9-5.2
	c-1.2,2.6-5.3-3.9-4.6-4.6c1,0.2-2.5-1.3-2.6-2.5c-1.7-1.4,2.5-3.2-2.5-1.4c-1.3-3.3-1.8,1.5-3.4-1.6c-2.6,3.4-0.2,0-2.3-1.6
	c-2.2-2.2,1.4-0.4-3.6-1.3c2.1-0.1,1.2,0.4-2.6-1.1c-1.4-1.4-3.1,0.3-4.5-1.3c-1.8-2.9-4.2,1.1-2-0.2c-0.1,0.2-2.2-0.8-2.8-1.3
	C458.3,68.2,457.3,67.9,457.2,70.2z M446.1,101.2L256,237L65.9,101.2H446.1z M472.7,395.3c0,8.5-6.9,15.5-15.5,15.5H54.8
	c-8.5,0-15.5-6.9-15.5-15.5V120.2L247,268.5c5.4,3.8,12.6,3.8,18,0l207.7-148.3V395.3z"/>
</svg>
